<mxfile host="app.diagrams.net" modified="2023-07-27T12:28:04.677Z" agent="Mozilla/5.0 (Windows NT 10.0; Win64; x64) AppleWebKit/537.36 (KHTML, like Gecko) Chrome/114.0.0.0 Safari/537.36" version="21.6.5" etag="iahXrUeMp2Jcdg3qfM1u" type="github">
  <diagram name="PÃ¡gina-1" id="Y96OMQw_8pTbOwQz2Rvb">
    <mxGraphModel>
      <root>
        <mxCell id="0" />
        <mxCell id="1" parent="0" />
      </root>
    </mxGraphModel>
  </diagram>
</mxfile>
